# xmcd CD database file
#
# Track frame offsets:
#	150
#	14844
#	30831
#	47156
#	64048
#	82122
#	100668
#	122536
#	141261
#	157536
#	177999
#	199031
#	223706
#	250965
#	265200
#	292309
#
# Disc length: 4110 seconds
#
# Revision: 0
# Processed by: cddbd v1.5.2PL0 Copyright (c) Steve Scherf et al.
# Submitted via: CDex 1.94
#
DISCID=e5100c10
DTITLE=Van Morrison - Versatile
DYEAR=2017
DGENRE=Jazz
TTITLE0=Broken record
TTITLE1=A Foggy Day
TTITLE2=Let's get Lost
TTITLE3=Bye Bye Blackbird
TTITLE4=Skye Boat Song
TTITLE5=Take It Easy Baby
TTITLE6=Makin' Whoopee
TTITLE7=I Get A Kick Out Of You
TTITLE8=I Forgot That Love Existed
TTITLE9=Unchain Melody
TTITLE10=Start All Over Again
TTITLE11=Only A Dream
TTITLE12=Affirmation
TTITLE13=The Party's Over
TTITLE14=I Left My Heart In San Francisco
TTITLE15=They Can't Take That Away From Me
EXTD=YEAR: 2017
EXTT0=
EXTT1=
EXTT2=
EXTT3=
EXTT4=
EXTT5=
EXTT6=
EXTT7=
EXTT8=
EXTT9=
EXTT10=
EXTT11=
EXTT12=
EXTT13=
EXTT14=
EXTT15=
PLAYORDER=
